Coordinates
version=1
nRows=29
nColumns=24
inDegrees=yes

Units are S.I. units (second, meters, Newtons, ...)
Angles are in degrees.

endheader
time	pelvis_tilt	pelvis_list	pelvis_rotation	pelvis_tx	pelvis_ty	pelvis_tz	hip_flexion_r	hip_adduction_r	hip_rotation_r	knee_angle_r	ankle_angle_r	subtalar_angle_r	mtp_angle_r	hip_flexion_l	hip_adduction_l	hip_rotation_l	knee_angle_l	ankle_angle_l	subtalar_angle_l	mtp_angle_l	lumbar_extension	lumbar_bending	lumbar_rotation
      3.47000000	    -17.61123238	     -4.58161853	      3.10498885	     -2.03736193	     -0.04570837	     -0.32188059	     45.69969961	      2.78648576	    -19.49275042	    -14.44691809	     -1.43194325	     -3.54795536	     20.15510958	     -0.63860010	     -4.49724543	     -6.04743502	    -19.21482032	      7.46738839	     11.39906576	      9.52333548	     22.18975123	      0.56703435	    -20.29390298
      3.47500000	    -17.66905636	     -4.85037284	      3.18256712	     -2.02903472	     -0.04673557	     -0.32158646	     45.79493651	      2.98671542	    -19.31398962	    -15.22004103	     -2.23017056	     -4.68229882	     20.09718021	     -0.61650824	     -4.95643446	     -5.95402356	    -20.07646499	      6.75215711	     11.77744485	      9.61358893	     22.42445567	      0.83340213	    -20.49270964
      3.48000000	    -17.68313348	     -5.11830113	      3.08321655	     -2.02062384	     -0.04773304	     -0.32100064	     45.85037349	      3.35549424	    -18.85764125	    -15.98545945	     -3.17974615	     -6.08986831	     19.99384869	     -0.64677035	     -5.46512564	     -6.27271945	    -20.95893909	      5.91701002	     12.31418649	     10.10243710	     22.61547070	      1.16853756	    -20.49032393
      3.48500000	    -17.70627395	     -5.43635406	      3.03391271	     -2.01223027	     -0.04864239	     -0.32047622	     45.92850264	      3.72840274	    -18.47230530	    -16.77698540	     -4.20881995	     -7.55187388	     19.74533964	     -0.61860584	     -6.02892641	     -6.45860658	    -21.86262884	      4.93283100	     12.76979149	     10.93321950	     22.81994284	      1.53333787	    -20.56438894
      3.49000000	    -17.75575508	     -5.77890125	      2.99142044	     -2.00383020	     -0.04951556	     -0.31994238	     46.04366034	      4.12817047	    -18.01435655	    -17.58830365	     -5.21961964	     -9.09101940	     19.32540681	     -0.49568230	     -6.63372092	     -6.69389708	    -22.85106163	      3.80456079	     13.17090673	     11.87708192	     23.05451919	      1.91276352	    -20.67774700
      3.49500000	    -17.76134070	     -6.12317899	      2.94730273	     -1.99547707	     -0.05023837	     -0.31940413	     46.14692649	      4.53975981	    -17.51151011	    -18.48884817	     -6.18225917	    -10.56598798	     18.25211198	     -0.40366273	     -7.23674616	     -6.83381031	    -23.76502729	      2.37506230	     13.30155280	     13.81426562	     23.23505737	      2.30203283	    -20.79107156
      3.50000000	    -17.86967792	     -6.49150731	      2.87603753	     -1.98711938	     -0.05105718	     -0.31880960	     46.37287089	      4.99316749	    -16.92167474	    -19.39707865	     -7.07656293	    -12.17439321	     17.63514219	     -0.09300405	     -7.89422790	     -7.09424128	    -24.94111456	      1.05839868	     13.76037835	     14.48714068	     23.53023747	      2.71127616	    -20.92271327
      3.50500000	    -17.87614759	     -6.82222583	      2.78503222	     -1.97886838	     -0.05167612	     -0.31816377	     46.54224448	      5.45206860	    -16.26139482	    -20.46293229	     -7.77969623	    -13.55393657	     15.68340608	      0.11270305	     -8.50790584	     -7.28492816	    -25.97761820	     -0.68019732	     13.77312962	     16.76385283	     23.69020070	      3.10458936	    -20.95659857
      3.51000000	    -17.97370399	     -7.17014210	      2.65830022	     -1.97066542	     -0.05241058	     -0.31743597	     46.82011041	      5.94780767	    -15.56849480	    -21.52633962	     -8.37963969	    -14.99829603	     14.55779472	      0.52742556	     -9.17426716	     -7.57994093	    -27.27518194	     -2.29324752	     14.12171650	     17.82519554	     23.93980090	      3.51028864	    -20.99394576
      3.51500000	    -17.95540395	     -7.50554830	      2.60653875	     -1.96240148	     -0.05288453	     -0.31683890	     46.97145323	      6.39995600	    -14.93390548	    -22.68840632	     -8.58963055	    -16.06845006	     12.15315024	      0.82975114	     -9.79030746	     -7.64786418	    -28.41676955	     -4.36433331	     13.88154447	     20.14129977	     24.08183470	      3.88609435	    -21.12878475
      3.52000000	    -17.95988703	     -7.81966117	      2.52383889	     -1.95425023	     -0.05339424	     -0.31617276	     47.15458678	      6.85573241	    -14.31975076	    -23.85982774	     -8.64996839	    -17.06775323	     10.19301628	      1.24405693	    -10.40017687	     -7.74857576	    -29.71521831	     -6.42126923	     13.77308819	     21.86510448	     24.22329361	      4.25001908	    -21.21154218
      3.52500000	    -17.97291004	     -8.12714843	      2.40708695	     -1.94612374	     -0.05389226	     -0.31548528	     47.33630926	      7.32010621	    -13.80907746	    -25.02914082	     -8.55077275	    -17.93757031	      8.43560879	      1.71944937	    -11.00203575	     -7.84401313	    -31.07375676	     -8.57362496	     13.59773984	     23.49998433	     24.36368142	      4.62124246	    -21.24610222
      3.53000000	    -17.93737841	     -8.38175595	      2.39614669	     -1.93824909	     -0.05428666	     -0.31481942	     47.44458617	      7.69246396	    -13.29398853	    -26.15792957	     -8.30452165	    -18.78283936	      6.83640833	      2.26833742	    -11.53478228	     -7.72498235	    -32.52406832	    -10.81222062	     13.37675379	     25.01869674	     24.41463843	      4.88499380	    -21.40265695
      3.53500000	    -17.81200096	     -8.61192370	      2.37954245	     -1.93034744	     -0.05450913	     -0.31431631	     47.41995876	      8.01997017	    -12.96542360	    -27.28426818	     -7.74938750	    -19.16896766	      4.98151850	      2.73601006	    -11.98951007	     -7.53576700	    -33.91716582	    -13.24702917	     12.70621448	     26.79312418	     24.37155842	      5.15880376	    -21.51983742
      3.54000000	    -17.70064978	     -8.86609918	      2.33415840	     -1.92246746	     -0.05472878	     -0.31379026	     47.35499072	      8.37873510	    -12.72936245	    -28.31411540	     -7.10617297	    -19.45250096	      3.50646271	      3.27513603	    -12.46572132	     -7.34229493	    -35.39357612	    -15.62474633	     12.08485616	     28.12157244	     24.33989914	      5.46786838	    -21.61307910
      3.54500000	    -17.57555978	     -9.12456895	      2.25334725	     -1.91459835	     -0.05489013	     -0.31329267	     47.21565822	      8.74673894	    -12.59352205	    -29.25996819	     -6.32230443	    -19.49331568	      2.21871105	      3.82972613	    -12.92639571	     -7.13808766	    -36.89311283	    -17.96999279	     11.37724058	     29.26634569	     24.28849056	      5.80755967	    -21.63374841
      3.55000000	    -17.39484273	     -9.39028769	      2.19102029	     -1.90692155	     -0.05497079	     -0.31281661	     46.95067187	      9.12215406	    -12.48034028	    -30.02776207	     -5.67247210	    -19.80175561	      2.08276403	      4.42303798	    -13.38116474	     -6.89670550	    -38.55903045	    -20.05745036	     10.75194133	     29.24958449	     24.14820590	      6.14931494	    -21.70309947
      3.55500000	    -17.33791970	     -9.55810580	      2.21642715	     -1.89946860	     -0.05509716	     -0.31245750	     46.81368390	      9.29876933	    -12.50244277	    -30.85646940	     -4.71591147	    -19.54092036	      1.11477578	      5.23457867	    -13.66489528	     -6.41235566	    -40.17544339	    -22.16864911	      9.84882157	     30.19432371	     24.11344162	      6.34698787	    -21.84960648
      3.56000000	    -17.16530434	     -9.84311487	      2.09502789	     -1.89192949	     -0.05509169	     -0.31190327	     46.44714105	      9.72295875	    -12.51008820	    -31.43703014	     -4.00747636	    -19.67877877	      1.01651929	      5.90549296	    -14.12531528	     -6.20983831	    -41.88281758	    -23.92050245	      9.05383991	     30.12392251	     23.95654942	      6.73043491	    -21.83052001
      3.56500000	    -17.07747083	    -10.03108857	      2.10397737	     -1.88466785	     -0.05508312	     -0.31157136	     46.16337281	      9.91434788	    -12.65677383	    -32.04385164	     -3.06186938	    -19.33298438	      0.62078771	      6.78062069	    -14.39737992	     -5.72751880	    -43.60918664	    -25.48550663	      8.10735959	     30.27415271	     23.86216291	      6.96247236	    -21.95750908
      3.57000000	    -16.96432197	    -10.27526507	      2.04244811	     -1.87739051	     -0.05497317	     -0.31114705	     45.77123897	     10.22228179	    -12.81154980	    -32.47917487	     -2.25277191	    -19.16193384	      0.52654681	      7.62941735	    -14.73667880	     -5.34514330	    -45.35080390	    -26.72653843	      7.12343434	     30.10404058	     23.74159414	      7.28197735	    -21.95566568
      3.57500000	    -16.86811494	    -10.54041806	      1.92284964	     -1.87013687	     -0.05483694	     -0.31061556	     45.33650018	     10.59927843	    -12.92022950	    -32.80238833	     -1.45478934	    -18.94921899	      0.59404149	      8.50114511	    -15.11719452	     -5.06651992	    -47.09670142	    -27.61216057	      6.10683677	     29.87611966	     23.63325738	      7.63372630	    -21.95608285
      3.58000000	    -16.84933731	    -10.70817746	      1.93968434	     -1.86317963	     -0.05465723	     -0.31037015	     44.97930880	     10.74004924	    -13.16337975	    -33.12423759	     -0.58120737	    -18.48094272	      0.70947014	      9.57383753	    -15.28560938	     -4.51398702	    -48.89036319	    -28.14877013	      5.04281140	     29.25235458	     23.58156620	      7.84448089	    -22.04738005
      3.58500000	    -16.84831581	    -10.90896875	      1.86334570	     -1.85617818	     -0.05443169	     -0.30999308	     44.57826782	     10.98556215	    -13.36860411	    -33.32634326	      0.21031172	    -18.07671103	      0.96217066	     10.64252674	    -15.51551334	     -4.11489053	    -50.67679246	    -28.27605288	      4.01678142	     28.25730616	     23.55235364	      8.12022982	    -22.02865575
      3.59000000	    -16.83216338	    -11.09994954	      1.78577003	     -1.84917912	     -0.05405851	     -0.30961151	     44.10281612	     11.23840649	    -13.55454854	    -33.42133800	      0.94666471	    -17.72597525	      1.33637643	     11.68832328	    -15.71658800	     -3.72285108	    -52.38203645	    -28.13353368	      2.90031238	     27.31485692	     23.51312648	      8.38662560	    -21.96616785
      3.59500000	    -16.82592953	    -11.25522932	      1.70554646	     -1.84226656	     -0.05358461	     -0.30922138	     43.60495887	     11.46770309	    -13.70742254	    -33.45432120	      1.62817902	    -17.38288018	      1.76221829	     12.75091527	    -15.86452778	     -3.35091681	    -54.02358805	    -27.72094313	      1.71895951	     26.38774384	     23.47723007	      8.61389792	    -21.89693777
      3.60000000	    -16.77080453	    -11.42544683	      1.59935549	     -1.83531926	     -0.05289074	     -0.30874722	     42.99081910	     11.77445835	    -13.75237209	    -33.37132580	      2.20827387	    -17.11697088	      1.97062391	     13.72279479	    -16.04085992	     -3.04412168	    -55.50450718	    -27.21173796	      0.37484672	     26.02385249	     23.39334692	      8.86324758	    -21.76568458
      3.60500000	    -16.86397073	    -11.45603730	      1.52222453	     -1.82853340	     -0.05232719	     -0.30841741	     42.55403314	     11.86924390	    -13.87942450	    -33.34253096	      2.87087474	    -16.72460993	      2.56670673	     14.89819765	    -16.00164650	     -2.68150077	    -57.03403752	    -26.24195019	     -0.69488674	     24.52999183	     23.45308877	      8.95971108	    -21.64890909
      3.61000000	    -16.83766106	    -11.51333370	      1.43638735	     -1.82176877	     -0.05146707	     -0.30799656	     41.93459011	     12.06463968	    -13.85414618	    -33.19866043	      3.38850271	    -16.46544458	      2.89021370	     15.91360470	    -16.01466295	     -2.39409942	    -58.38213355	    -25.31795618	     -1.94919954	     23.69986364	     23.38593933	      9.08443087	    -21.52687261
